<?xml version="1.0" standalone="no"?>
<!DOCTYPE svg PUBLIC "-//W3C//DTD SVG 20010904//EN"
 "http://www.w3.org/TR/2001/REC-SVG-20010904/DTD/svg10.dtd">
<svg version="1.0" xmlns="http://www.w3.org/2000/svg"
 width="128.000000pt" height="128.000000pt" viewBox="0 0 128.000000 128.000000"
 preserveAspectRatio="xMidYMid meet">
<metadata>
Created by potrace 1.11, written by Peter Selinger 2001-2013
</metadata>
<g transform="translate(0.000000,128.000000) scale(0.100000,-0.100000)"
fill="#000000" stroke="none">
<path d="M608 1265 c-2 -3 -29 -8 -59 -11 -29 -3 -62 -10 -71 -15 -10 -5 -18
-6 -18 -2 0 4 -5 2 -12 -5 -7 -7 -22 -12 -35 -12 -13 0 -23 -4 -23 -10 0 -5
-6 -10 -13 -10 -7 0 -29 -11 -50 -25 -20 -14 -37 -24 -37 -21 0 3 -15 -8 -32
-25 -18 -16 -36 -29 -41 -29 -4 0 -5 -4 -2 -10 3 -5 2 -10 -4 -10 -14 0 -60
-47 -53 -54 3 -3 1 -6 -4 -6 -5 0 -20 -20 -34 -45 -14 -25 -28 -45 -32 -45 -5
0 -8 -5 -8 -10 0 -6 -7 -27 -16 -48 -10 -20 -18 -41 -19 -47 -1 -5 -3 -12 -4
-15 -7 -14 -12 -50 -14 -92 -1 -25 -4 -45 -7 -43 -3 2 -6 -8 -6 -21 -1 -13 2
-24 7 -24 5 0 4 -11 -1 -25 -5 -14 -6 -25 -1 -25 4 0 7 -10 6 -23 -1 -12 0
-26 4 -32 3 -5 6 -21 6 -35 1 -14 6 -35 13 -46 6 -12 8 -24 5 -28 -3 -3 -1 -6
5 -6 7 0 12 -8 12 -19 0 -10 7 -24 15 -31 9 -7 13 -15 11 -18 -6 -5 32 -63 49
-74 5 -4 7 -8 3 -8 -4 0 6 -14 24 -30 17 -17 27 -30 22 -30 -5 0 10 -13 34
-28 23 -16 39 -32 35 -35 -3 -4 0 -7 8 -7 9 0 24 -8 35 -18 11 -10 25 -17 32
-14 6 2 12 -1 12 -8 0 -6 4 -9 9 -6 5 3 11 0 14 -8 3 -8 14 -13 24 -12 10 2
23 -3 31 -10 7 -7 19 -11 27 -8 8 4 15 2 15 -3 0 -5 6 -10 13 -11 6 -1 30 -4
52 -8 77 -12 255 -6 255 9 0 4 6 7 13 6 13 -2 23 1 97 33 25 10 45 18 46 16 0
-2 8 4 17 12 35 32 47 40 47 33 0 -4 4 -3 8 2 4 6 24 25 45 43 21 17 35 32 32
32 -4 0 6 14 22 31 53 57 63 69 63 74 0 3 11 28 25 57 13 28 27 66 31 85 3 18
9 33 13 33 18 0 17 264 -1 296 -4 7 -18 53 -22 74 -4 17 -64 125 -78 140 -10
11 -18 22 -18 25 0 18 -147 145 -167 145 -7 0 -13 3 -13 8 0 8 -49 32 -67 32
-7 0 -13 4 -13 8 0 5 -6 9 -12 10 -20 1 -57 10 -68 17 -5 3 -28 7 -52 9 -24 2
-47 5 -53 6 -5 1 -12 1 -15 0 -19 -7 -40 -7 -40 1 0 10 -13 12 -22 4z m15
-328 c15 9 47 12 47 4 0 -3 17 -7 37 -7 21 -1 39 -7 41 -13 2 -6 12 -11 23
-11 10 0 28 -9 39 -20 11 -11 22 -20 25 -20 9 0 57 -50 48 -50 -4 0 -3 -4 3
-8 13 -8 47 -72 39 -72 -3 0 0 -12 7 -27 16 -33 15 -118 -1 -170 -1 -2 -1 -6
-2 -10 -1 -5 -10 -20 -21 -35 -11 -16 -17 -28 -15 -28 3 0 -12 -18 -32 -40
-20 -22 -42 -40 -49 -40 -6 0 -12 -4 -12 -8 0 -11 -80 -38 -99 -34 -7 2 -10
-1 -7 -6 3 -5 -21 -7 -57 -5 -88 6 -87 5 -87 15 0 5 -4 7 -9 4 -14 -9 -131 73
-131 93 0 6 -4 11 -9 11 -11 0 -46 72 -56 115 -10 42 -13 95 -5 90 4 -2 6 6 5
18 -2 29 14 77 27 77 5 0 7 4 4 9 -8 12 4 42 13 37 4 -3 13 9 20 25 7 16 17
27 22 23 5 -3 9 2 9 11 0 9 5 13 10 10 6 -3 10 -1 10 4 0 6 7 11 15 11 7 0 19
8 24 18 6 9 11 14 11 10 0 -3 21 2 48 11 26 10 49 14 50 9 2 -4 9 -5 15 -1z"/>
</g>
</svg>
