<?xml version="1.0" encoding="UTF-8"?>
<svg width="68px" height="68px" viewBox="0 0 68 68" version="1.1" xmlns="http://www.w3.org/2000/svg" xmlns:xlink="http://www.w3.org/1999/xlink">
    <!-- Generator: Sketch 43.1 (39012) - http://www.bohemiancoding.com/sketch -->
    <title>logo</title>
    <desc>Created with Sketch.</desc>
    <defs>
        <linearGradient x1="72.35151%" y1="15.7756829%" x2="22.29351%" y2="73.5525558%" id="linearGradient-1">
            <stop stop-color="#FA607F" offset="0%"></stop>
            <stop stop-color="#FFFFFF" offset="100%"></stop>
        </linearGradient>
        <linearGradient x1="107.078819%" y1="-93.6367841%" x2="165.07742%" y2="-93.3574063%" id="linearGradient-2">
            <stop stop-color="#51C0FF" offset="0%"></stop>
            <stop stop-color="#FFFFFF" offset="100%"></stop>
        </linearGradient>
        <linearGradient x1="127.054177%" y1="-152.002724%" x2="160.399161%" y2="-43.3023547%" id="linearGradient-3">
            <stop stop-color="#00B6DD" offset="0%"></stop>
            <stop stop-color="#0EBADF" offset="2%"></stop>
            <stop stop-color="#40C8E6" offset="9%"></stop>
            <stop stop-color="#6ED5EC" offset="17%"></stop>
            <stop stop-color="#95E1F1" offset="26%"></stop>
            <stop stop-color="#B6EAF5" offset="34%"></stop>
            <stop stop-color="#D1F2F9" offset="43%"></stop>
            <stop stop-color="#E5F8FC" offset="53%"></stop>
            <stop stop-color="#F4FCFE" offset="65%"></stop>
            <stop stop-color="#FCFEFF" offset="78%"></stop>
            <stop stop-color="#FFFFFF" offset="100%"></stop>
        </linearGradient>
        <linearGradient x1="-32.2770848%" y1="49.2428736%" x2="-82.5738009%" y2="-8.70214749%" id="linearGradient-4">
            <stop stop-color="#3AE1E7" offset="0%"></stop>
            <stop stop-color="#FFFFFF" offset="100%"></stop>
        </linearGradient>
        <linearGradient x1="-85.0514286%" y1="46.5779691%" x2="-43.2091978%" y2="-14.2973974%" id="linearGradient-5">
            <stop stop-color="#3AE1E7" offset="0%"></stop>
            <stop stop-color="#67E8ED" offset="13%"></stop>
            <stop stop-color="#95EFF2" offset="28%"></stop>
            <stop stop-color="#BBF5F7" offset="43%"></stop>
            <stop stop-color="#D9F9FA" offset="58%"></stop>
            <stop stop-color="#EEFCFD" offset="72%"></stop>
            <stop stop-color="#FBFEFE" offset="87%"></stop>
            <stop stop-color="#FFFFFF" offset="100%"></stop>
        </linearGradient>
        <linearGradient x1="95.0335674%" y1="47.5489207%" x2="-4.62819805%" y2="53.6009683%" id="linearGradient-6">
            <stop stop-color="#FB6C6E" offset="0%"></stop>
            <stop stop-color="#FC8789" offset="4%"></stop>
            <stop stop-color="#FDA7A8" offset="10%"></stop>
            <stop stop-color="#FDC3C3" offset="17%"></stop>
            <stop stop-color="#FED9D9" offset="25%"></stop>
            <stop stop-color="#FEEAEA" offset="34%"></stop>
            <stop stop-color="#FFF6F6" offset="45%"></stop>
            <stop stop-color="#FFFDFD" offset="60%"></stop>
            <stop stop-color="#FFFFFF" offset="100%"></stop>
        </linearGradient>
        <linearGradient x1="9.77420266%" y1="20.2658043%" x2="90.3127%" y2="79.6848036%" id="linearGradient-7">
            <stop stop-color="#00B6DD" offset="0%"></stop>
            <stop stop-color="#3AE1E7" offset="100%"></stop>
        </linearGradient>
        <linearGradient x1="95.8333333%" y1="17.3809524%" x2="-5.95238095%" y2="89.8214286%" id="linearGradient-8">
            <stop stop-color="#894CFF" offset="0%"></stop>
            <stop stop-color="#51C0FF" offset="100%"></stop>
        </linearGradient>
        <linearGradient x1="0%" y1="50%" x2="100%" y2="50%" id="linearGradient-9">
            <stop stop-color="#FA607F" offset="0%"></stop>
            <stop stop-color="#FF7740" offset="100%"></stop>
        </linearGradient>
    </defs>
    <g id="Page-1" stroke="none" stroke-width="1" fill="none" fill-rule="evenodd">
        <g id="logo" fill-rule="nonzero">
            <path d="M33.7868657,0.294328358 C21.8025359,0.28644964 10.7273041,6.68250648 4.74444974,17.0666134 C-1.23840466,27.4507203 -1.21699308,40.2401629 4.80059701,50.6041791 L19.5779104,42.078806 C16.6191055,36.9917729 16.602811,30.7117416 19.535178,25.6094229 C22.4675451,20.5071043 27.9019347,17.3596501 33.7868657,17.3552239 L33.7868657,0.294328358 Z" id="Shape" fill="url(#linearGradient-1)"></path>
            <path d="M4.81074627,50.6041791 C10.7852803,60.9977321 21.8593918,67.4053468 33.8477612,67.4053468 C45.8361306,67.4053468 56.9102421,60.9977321 62.8847761,50.6041791 L48.1074627,42.0483582 C45.1648235,47.1442999 39.7272212,50.2834365 33.8426866,50.2834365 C27.958152,50.2834365 22.5205497,47.1442999 19.5779104,42.0483582 L4.81074627,50.6041791 Z" id="Shape" fill="url(#linearGradient-2)"></path>
            <path d="M4.81074627,50.6041791 C10.7852803,60.9977321 21.8593918,67.4053468 33.8477612,67.4053468 C45.8361306,67.4053468 56.9102421,60.9977321 62.8847761,50.6041791 L48.1074627,42.0483582 C45.1648235,47.1442999 39.7272212,50.2834365 33.8426866,50.2834365 C27.958152,50.2834365 22.5205497,47.1442999 19.5779104,42.0483582 L4.81074627,50.6041791 Z" id="Shape" fill="url(#linearGradient-3)" style="mix-blend-mode: multiply;"></path>
            <path d="M62.9253731,50.5940299 C68.9383608,40.2130226 68.9398162,27.4087854 62.9291887,17.0264114 C56.9185612,6.64403739 45.8139499,0.269392348 33.8173134,0.314626866 L33.8173134,17.3653731 C39.7038073,17.3560266 45.1478958,20.4886039 48.0979066,25.5825546 C51.0479175,30.6765052 51.0554296,36.957515 48.1176119,42.0585075 L62.9253731,50.5940299 Z" id="Shape" fill="url(#linearGradient-4)"></path>
            <path d="M62.9253731,50.5940299 C68.9383608,40.2130226 68.9398162,27.4087854 62.9291887,17.0264114 C56.9185612,6.64403739 45.8139499,0.269392348 33.8173134,0.314626866 L33.8173134,17.3653731 C39.7038073,17.3560266 45.1478958,20.4886039 48.0979066,25.5825546 C51.0479175,30.6765052 51.0554296,36.957515 48.1176119,42.0585075 L62.9253731,50.5940299 Z" id="Shape" fill="url(#linearGradient-5)" style="mix-blend-mode: multiply;"></path>
            <path d="M33.7767164,0.294328358 C21.7960129,0.293714552 10.7274362,6.69263946 4.7495388,17.0754136 C-1.2283586,27.4581877 -1.20501911,40.2432996 4.81074627,50.6041791 L19.5880597,42.078806 C16.6156194,36.9935152 16.5925478,30.706196 19.5275871,25.5992275 C22.4626265,20.492259 27.906725,17.3469915 33.7970149,17.3552239 L33.7767164,0.294328358 Z" id="Shape" fill="url(#linearGradient-6)" style="mix-blend-mode: multiply;"></path>
            <circle id="Oval" fill="url(#linearGradient-7)" transform="translate(55.537021, 46.264086) rotate(-66.430000) translate(-55.537021, -46.264086) " cx="55.5370214" cy="46.264086" r="8.52537313"></circle>
            <circle id="Oval" fill="url(#linearGradient-8)" transform="translate(12.188611, 46.344571) rotate(-66.430000) translate(-12.188611, -46.344571) " cx="12.1886114" cy="46.3445712" r="8.52537313"></circle>
            <circle id="Oval" fill="url(#linearGradient-9)" cx="33.8680597" cy="8.81970149" r="8.52537313"></circle>
        </g>
    </g>
</svg>